<mxfile host="Electron" modified="2025-04-28T01:00:54.789Z" agent="Mozilla/5.0 (Windows NT 10.0; Win64; x64) AppleWebKit/537.36 (KHTML, like Gecko) draw.io/23.1.5 Chrome/120.0.6099.109 Electron/28.1.0 Safari/537.36" etag="K4VpmWJWbVwOp7X6nogT" version="23.1.5" type="device">
  <diagram name="Page-1" id="9fN9y0J1db5AeKpKTm90">
    <mxGraphModel dx="2600" dy="2295" grid="1" gridSize="10" guides="1" tooltips="1" connect="1" arrows="1" fold="1" page="1" pageScale="1" pageWidth="850" pageHeight="1100" background="#FFFFFF" math="0" shadow="0">
      <root>
        <mxCell id="0" />
        <mxCell id="1" parent="0" />
        <mxCell id="wTLbC7d2mpoesWb9yl13-4" value="&lt;font style=&quot;font-size: 40px;&quot;&gt;&lt;br&gt;&lt;br&gt;&lt;br&gt;&lt;br&gt;&lt;br&gt;&lt;/font&gt;&lt;font style=&quot;font-size: 40px;&quot;&gt;&lt;font style=&quot;font-size: 40px;&quot;&gt;Ethernet LAN&amp;nbsp;&lt;/font&gt;&lt;/font&gt;&lt;br style=&quot;font-size: 34px;&quot;&gt;&lt;br&gt;&lt;br&gt;&lt;br&gt;&lt;br&gt;&lt;div&gt;&lt;br&gt;&lt;/div&gt;" style="rounded=1;whiteSpace=wrap;html=1;fillColor=none;strokeWidth=13;strokeColor=#66FF66;" parent="1" vertex="1">
          <mxGeometry x="-410" y="650" width="570" height="240" as="geometry" />
        </mxCell>
        <mxCell id="wTLbC7d2mpoesWb9yl13-5" value="&lt;font style=&quot;font-size: 40px;&quot;&gt;&lt;br&gt;&lt;br&gt;&lt;br&gt;&lt;br&gt;&lt;br&gt;&lt;/font&gt;&lt;font style=&quot;font-size: 40px;&quot;&gt;&lt;font style=&quot;font-size: 40px;&quot;&gt;Internet&lt;br&gt;&lt;br&gt;&lt;br&gt;&lt;br&gt;&lt;br&gt;&lt;br&gt;&lt;br&gt;&lt;br&gt;&lt;br&gt;&lt;br&gt;&lt;br&gt;&lt;br&gt;&amp;nbsp;&lt;/font&gt;&lt;/font&gt;&lt;br style=&quot;font-size: 34px;&quot;&gt;&lt;br&gt;&lt;br&gt;&lt;br&gt;&lt;br&gt;&lt;div&gt;&lt;br&gt;&lt;/div&gt;" style="rounded=1;whiteSpace=wrap;html=1;fillColor=none;strokeWidth=13;strokeColor=#FF33FF;" parent="1" vertex="1">
          <mxGeometry x="-425" y="180" width="555" height="500" as="geometry" />
        </mxCell>
        <mxCell id="o7nRxInke629bI4oSXLo-20" value="&lt;font style=&quot;font-size: 40px;&quot;&gt;Wif&lt;/font&gt;&lt;font style=&quot;font-size: 40px;&quot;&gt;&lt;font style=&quot;font-size: 40px;&quot;&gt;i Mesh&lt;/font&gt;&lt;font style=&quot;font-size: 40px;&quot;&gt;&amp;nbsp;with Bat-ADV&amp;nbsp;&lt;/font&gt;&lt;/font&gt;&lt;br style=&quot;font-size: 34px;&quot;&gt;&lt;br&gt;&lt;br&gt;&lt;br&gt;&lt;br&gt;&lt;br&gt;&lt;br&gt;&lt;br&gt;&lt;br&gt;&lt;br&gt;&lt;br&gt;&lt;br&gt;&lt;br&gt;&lt;br&gt;&lt;br&gt;&lt;br&gt;&lt;br&gt;&lt;br&gt;&lt;br&gt;&lt;br&gt;&lt;br&gt;&lt;br&gt;&lt;br&gt;&lt;br&gt;&lt;br&gt;&lt;br&gt;&lt;br&gt;&lt;br&gt;&lt;br&gt;&lt;br&gt;&lt;br&gt;&lt;br&gt;&lt;br&gt;&lt;br&gt;&lt;br&gt;&lt;br&gt;&lt;br&gt;&lt;br&gt;&lt;br&gt;&lt;br&gt;&lt;br&gt;&lt;br&gt;&lt;br&gt;&lt;br&gt;&lt;br&gt;&lt;br&gt;&lt;br&gt;&lt;br&gt;&lt;br&gt;&lt;br&gt;&lt;br&gt;&lt;br&gt;&lt;br&gt;&lt;br&gt;&lt;br&gt;&lt;div&gt;&lt;br&gt;&lt;/div&gt;" style="rounded=1;whiteSpace=wrap;html=1;fillColor=none;strokeWidth=13;strokeColor=#0000FF;" parent="1" vertex="1">
          <mxGeometry x="160" y="40" width="1250" height="890" as="geometry" />
        </mxCell>
        <mxCell id="o7nRxInke629bI4oSXLo-10" style="edgeStyle=orthogonalEdgeStyle;rounded=0;orthogonalLoop=1;jettySize=auto;html=1;exitX=0.5;exitY=1;exitDx=0;exitDy=0;entryX=0.5;entryY=0;entryDx=0;entryDy=0;startArrow=classic;startFill=1;" parent="1" source="yq5o3rNRxMULNA8tGiuG-2" target="yq5o3rNRxMULNA8tGiuG-9" edge="1">
          <mxGeometry relative="1" as="geometry" />
        </mxCell>
        <mxCell id="o7nRxInke629bI4oSXLo-17" value="&lt;font style=&quot;font-size: 18px;&quot;&gt;Ad-Hoc Wifi&lt;br style=&quot;font-size: 18px;&quot;&gt;&lt;/font&gt;" style="edgeLabel;html=1;align=center;verticalAlign=middle;resizable=0;points=[];fontSize=18;" parent="o7nRxInke629bI4oSXLo-10" vertex="1" connectable="0">
          <mxGeometry x="-0.0543" relative="1" as="geometry">
            <mxPoint as="offset" />
          </mxGeometry>
        </mxCell>
        <mxCell id="yq5o3rNRxMULNA8tGiuG-2" value="&lt;font style=&quot;font-size: 24px;&quot;&gt;Suitcase&lt;/font&gt;&lt;br&gt;&lt;br&gt;&lt;br&gt;&lt;br&gt;&lt;br&gt;&lt;br&gt;&lt;br&gt;&lt;br&gt;&lt;br&gt;&lt;br&gt;&lt;br&gt;&lt;br&gt;&lt;br&gt;&lt;br&gt;&lt;br&gt;&lt;div&gt;&lt;br/&gt;&lt;/div&gt;" style="rounded=1;whiteSpace=wrap;html=1;strokeWidth=7;" parent="1" vertex="1">
          <mxGeometry x="410" y="120" width="350" height="290" as="geometry" />
        </mxCell>
        <mxCell id="yq5o3rNRxMULNA8tGiuG-4" value="&lt;font style=&quot;font-size: 14px;&quot;&gt;Accelerometers&lt;/font&gt;" style="rounded=1;whiteSpace=wrap;html=1;strokeWidth=4;" parent="1" vertex="1">
          <mxGeometry x="580" y="180" width="120" height="40" as="geometry" />
        </mxCell>
        <mxCell id="yq5o3rNRxMULNA8tGiuG-5" value="&lt;font style=&quot;font-size: 14px;&quot;&gt;Camera&lt;/font&gt;" style="rounded=1;whiteSpace=wrap;html=1;strokeWidth=4;" parent="1" vertex="1">
          <mxGeometry x="425" y="180" width="120" height="40" as="geometry" />
        </mxCell>
        <mxCell id="yq5o3rNRxMULNA8tGiuG-6" value="&lt;font style=&quot;font-size: 14px;&quot;&gt;Magnetic Lead Switch&lt;/font&gt;" style="rounded=1;whiteSpace=wrap;html=1;strokeWidth=4;" parent="1" vertex="1">
          <mxGeometry x="425" y="245" width="120" height="40" as="geometry" />
        </mxCell>
        <mxCell id="yq5o3rNRxMULNA8tGiuG-23" style="edgeStyle=orthogonalEdgeStyle;rounded=0;orthogonalLoop=1;jettySize=auto;html=1;exitX=0;exitY=0.5;exitDx=0;exitDy=0;startArrow=classic;startFill=1;strokeWidth=7;" parent="1" source="yq5o3rNRxMULNA8tGiuG-7" target="yq5o3rNRxMULNA8tGiuG-21" edge="1">
          <mxGeometry relative="1" as="geometry">
            <Array as="points">
              <mxPoint x="220" y="360" />
            </Array>
          </mxGeometry>
        </mxCell>
        <mxCell id="o7nRxInke629bI4oSXLo-19" value="&lt;font style=&quot;font-size: 18px;&quot;&gt;B.A.T.M.A.N&lt;br style=&quot;border-color: var(--border-color);&quot;&gt;Ad-Hoc Wifi&amp;nbsp;&lt;br&gt;+&lt;br&gt;MQTT&lt;br&gt;&lt;/font&gt;" style="edgeLabel;html=1;align=center;verticalAlign=middle;resizable=0;points=[];" parent="yq5o3rNRxMULNA8tGiuG-23" vertex="1" connectable="0">
          <mxGeometry x="0.4821" y="-1" relative="1" as="geometry">
            <mxPoint y="1" as="offset" />
          </mxGeometry>
        </mxCell>
        <mxCell id="yq5o3rNRxMULNA8tGiuG-7" value="&lt;font style=&quot;font-size: 15px;&quot;&gt;RPi&lt;/font&gt;" style="rounded=1;whiteSpace=wrap;html=1;strokeWidth=4;" parent="1" vertex="1">
          <mxGeometry x="470" y="330" width="120" height="60" as="geometry" />
        </mxCell>
        <mxCell id="o7nRxInke629bI4oSXLo-15" style="edgeStyle=orthogonalEdgeStyle;rounded=0;orthogonalLoop=1;jettySize=auto;html=1;exitX=1;exitY=0.5;exitDx=0;exitDy=0;entryX=0;entryY=0.5;entryDx=0;entryDy=0;startArrow=classic;startFill=1;strokeWidth=7;" parent="1" source="yq5o3rNRxMULNA8tGiuG-9" target="yq5o3rNRxMULNA8tGiuG-14" edge="1">
          <mxGeometry relative="1" as="geometry" />
        </mxCell>
        <mxCell id="o7nRxInke629bI4oSXLo-16" value="&lt;font style=&quot;font-size: 18px;&quot;&gt;B.A.T.M.A.N&lt;br style=&quot;border-color: var(--border-color);&quot;&gt;Ad-Hoc Wifi&amp;nbsp;&lt;br style=&quot;border-color: var(--border-color);&quot;&gt;+&lt;br style=&quot;border-color: var(--border-color);&quot;&gt;MQTT&lt;br style=&quot;font-size: 18px;&quot;&gt;&lt;/font&gt;" style="edgeLabel;html=1;align=center;verticalAlign=middle;resizable=0;points=[];fontSize=18;" parent="o7nRxInke629bI4oSXLo-15" vertex="1" connectable="0">
          <mxGeometry x="-0.0374" y="-1" relative="1" as="geometry">
            <mxPoint as="offset" />
          </mxGeometry>
        </mxCell>
        <mxCell id="yq5o3rNRxMULNA8tGiuG-9" value="&lt;font style=&quot;font-size: 24px;&quot;&gt;Suitcase&lt;/font&gt;&lt;br&gt;&lt;br&gt;&lt;br&gt;&lt;br&gt;&lt;br&gt;&lt;br&gt;&lt;br&gt;&lt;br&gt;&lt;br&gt;&lt;br&gt;&lt;br&gt;&lt;br&gt;&lt;br&gt;&lt;br&gt;&lt;br&gt;&lt;div&gt;&lt;br/&gt;&lt;/div&gt;" style="rounded=1;whiteSpace=wrap;html=1;strokeWidth=7;" parent="1" vertex="1">
          <mxGeometry x="410" y="500" width="350" height="290" as="geometry" />
        </mxCell>
        <mxCell id="yq5o3rNRxMULNA8tGiuG-10" value="&lt;font style=&quot;font-size: 14px;&quot;&gt;Accelerometers&lt;/font&gt;" style="rounded=1;whiteSpace=wrap;html=1;strokeWidth=4;" parent="1" vertex="1">
          <mxGeometry x="580" y="560" width="120" height="40" as="geometry" />
        </mxCell>
        <mxCell id="yq5o3rNRxMULNA8tGiuG-11" value="&lt;font style=&quot;font-size: 14px;&quot;&gt;Camera&lt;/font&gt;" style="rounded=1;whiteSpace=wrap;html=1;strokeWidth=4;" parent="1" vertex="1">
          <mxGeometry x="425" y="560" width="120" height="40" as="geometry" />
        </mxCell>
        <mxCell id="yq5o3rNRxMULNA8tGiuG-12" value="&lt;font style=&quot;font-size: 14px;&quot;&gt;Magnetic Lead Switch&lt;/font&gt;" style="rounded=1;whiteSpace=wrap;html=1;strokeWidth=4;" parent="1" vertex="1">
          <mxGeometry x="440" y="640" width="120" height="40" as="geometry" />
        </mxCell>
        <mxCell id="yq5o3rNRxMULNA8tGiuG-22" style="edgeStyle=orthogonalEdgeStyle;rounded=0;orthogonalLoop=1;jettySize=auto;html=1;exitX=0;exitY=0.5;exitDx=0;exitDy=0;entryX=1;entryY=0.5;entryDx=0;entryDy=0;startArrow=block;startFill=1;strokeWidth=7;" parent="1" source="yq5o3rNRxMULNA8tGiuG-13" target="yq5o3rNRxMULNA8tGiuG-21" edge="1">
          <mxGeometry relative="1" as="geometry" />
        </mxCell>
        <mxCell id="o7nRxInke629bI4oSXLo-18" value="&lt;font style=&quot;font-size: 18px;&quot;&gt;B.A.T.M.A.N&lt;br style=&quot;border-color: var(--border-color);&quot;&gt;Ad-Hoc Wifi&amp;nbsp;&lt;br style=&quot;border-color: var(--border-color);&quot;&gt;+&lt;br style=&quot;border-color: var(--border-color);&quot;&gt;MQTT&lt;br style=&quot;font-size: 18px;&quot;&gt;&lt;/font&gt;" style="edgeLabel;html=1;align=center;verticalAlign=middle;resizable=0;points=[];fontSize=18;" parent="yq5o3rNRxMULNA8tGiuG-22" vertex="1" connectable="0">
          <mxGeometry x="0.2042" y="-1" relative="1" as="geometry">
            <mxPoint x="-1" as="offset" />
          </mxGeometry>
        </mxCell>
        <mxCell id="yq5o3rNRxMULNA8tGiuG-13" value="&lt;font style=&quot;font-size: 14px;&quot;&gt;RPi&lt;/font&gt;" style="rounded=1;whiteSpace=wrap;html=1;strokeWidth=4;" parent="1" vertex="1">
          <mxGeometry x="470" y="710" width="120" height="60" as="geometry" />
        </mxCell>
        <mxCell id="yq5o3rNRxMULNA8tGiuG-14" value="&lt;font style=&quot;font-size: 24px;&quot;&gt;Suitcase&lt;/font&gt;&lt;br&gt;&lt;br&gt;&lt;br&gt;&lt;br&gt;&lt;br&gt;&lt;br&gt;&lt;br&gt;&lt;br&gt;&lt;br&gt;&lt;br&gt;&lt;br&gt;&lt;br&gt;&lt;br&gt;&lt;br&gt;&lt;br&gt;&lt;div&gt;&lt;br/&gt;&lt;/div&gt;" style="rounded=1;whiteSpace=wrap;html=1;strokeWidth=7;" parent="1" vertex="1">
          <mxGeometry x="950" y="500" width="350" height="290" as="geometry" />
        </mxCell>
        <mxCell id="yq5o3rNRxMULNA8tGiuG-15" value="&lt;font style=&quot;font-size: 14px;&quot;&gt;Accelerometers&lt;/font&gt;" style="rounded=1;whiteSpace=wrap;html=1;strokeWidth=4;" parent="1" vertex="1">
          <mxGeometry x="1120" y="560" width="120" height="40" as="geometry" />
        </mxCell>
        <mxCell id="yq5o3rNRxMULNA8tGiuG-16" value="&lt;font style=&quot;font-size: 14px;&quot;&gt;Camera&lt;/font&gt;" style="rounded=1;whiteSpace=wrap;html=1;strokeWidth=4;" parent="1" vertex="1">
          <mxGeometry x="965" y="560" width="120" height="40" as="geometry" />
        </mxCell>
        <mxCell id="yq5o3rNRxMULNA8tGiuG-17" value="&lt;font style=&quot;font-size: 14px;&quot;&gt;Magnetic Lead Switch&lt;/font&gt;" style="rounded=1;whiteSpace=wrap;html=1;strokeWidth=4;" parent="1" vertex="1">
          <mxGeometry x="965" y="625" width="120" height="40" as="geometry" />
        </mxCell>
        <mxCell id="yq5o3rNRxMULNA8tGiuG-18" value="&lt;font style=&quot;font-size: 14px;&quot;&gt;RPi&lt;/font&gt;" style="rounded=1;whiteSpace=wrap;html=1;strokeWidth=4;" parent="1" vertex="1">
          <mxGeometry x="1010" y="710" width="120" height="60" as="geometry" />
        </mxCell>
        <mxCell id="o7nRxInke629bI4oSXLo-7" style="edgeStyle=orthogonalEdgeStyle;rounded=0;orthogonalLoop=1;jettySize=auto;html=1;exitX=0;exitY=0.5;exitDx=0;exitDy=0;entryX=1;entryY=0.5;entryDx=0;entryDy=0;strokeWidth=7;" parent="1" source="yq5o3rNRxMULNA8tGiuG-21" target="yq5o3rNRxMULNA8tGiuG-28" edge="1">
          <mxGeometry relative="1" as="geometry">
            <mxPoint x="-50" y="740" as="targetPoint" />
          </mxGeometry>
        </mxCell>
        <mxCell id="o7nRxInke629bI4oSXLo-8" value="&lt;font style=&quot;font-size: 22px;&quot;&gt;Ethernet&lt;/font&gt;" style="edgeLabel;html=1;align=center;verticalAlign=middle;resizable=0;points=[];" parent="o7nRxInke629bI4oSXLo-7" vertex="1" connectable="0">
          <mxGeometry x="-0.0611" y="-3" relative="1" as="geometry">
            <mxPoint x="-1" as="offset" />
          </mxGeometry>
        </mxCell>
        <mxCell id="yq5o3rNRxMULNA8tGiuG-21" value="&lt;span style=&quot;font-size: 16px;&quot;&gt;RPI gateway running MQTT broker&lt;/span&gt;" style="rounded=1;whiteSpace=wrap;html=1;strokeWidth=7;" parent="1" vertex="1">
          <mxGeometry x="70" y="690" width="180" height="100" as="geometry" />
        </mxCell>
        <mxCell id="yq5o3rNRxMULNA8tGiuG-30" style="edgeStyle=orthogonalEdgeStyle;rounded=0;orthogonalLoop=1;jettySize=auto;html=1;exitX=0.5;exitY=1;exitDx=0;exitDy=0;entryX=0.5;entryY=0;entryDx=0;entryDy=0;endArrow=classic;endFill=1;startArrow=classic;startFill=1;strokeWidth=7;" parent="1" source="yq5o3rNRxMULNA8tGiuG-25" target="yq5o3rNRxMULNA8tGiuG-28" edge="1">
          <mxGeometry relative="1" as="geometry" />
        </mxCell>
        <mxCell id="yq5o3rNRxMULNA8tGiuG-31" value="&lt;font style=&quot;&quot;&gt;&lt;font style=&quot;font-size: 29px;&quot;&gt;HTTP&lt;/font&gt;&lt;br&gt;&lt;/font&gt;" style="edgeLabel;html=1;align=center;verticalAlign=middle;resizable=0;points=[];" parent="yq5o3rNRxMULNA8tGiuG-30" vertex="1" connectable="0">
          <mxGeometry x="-0.3522" y="-1" relative="1" as="geometry">
            <mxPoint x="1" y="4" as="offset" />
          </mxGeometry>
        </mxCell>
        <mxCell id="yq5o3rNRxMULNA8tGiuG-25" value="&lt;font style=&quot;font-size: 16px;&quot;&gt;Suitcase Owners &quot;Cellphone&quot; (mimicked with a PC)&lt;/font&gt;" style="rounded=1;whiteSpace=wrap;html=1;strokeWidth=7;" parent="1" vertex="1">
          <mxGeometry x="-395" y="250" width="190" height="160" as="geometry" />
        </mxCell>
        <mxCell id="yq5o3rNRxMULNA8tGiuG-28" value="&lt;font style=&quot;font-size: 15px;&quot;&gt;Server to connect to IOT suitcases around the airpoint.&lt;/font&gt;" style="rounded=1;whiteSpace=wrap;html=1;strokeWidth=7;" parent="1" vertex="1">
          <mxGeometry x="-370" y="675" width="140" height="110" as="geometry" />
        </mxCell>
        <mxCell id="o7nRxInke629bI4oSXLo-21" value="&lt;font style=&quot;font-size: 14px;&quot;&gt;GPS Chip&lt;/font&gt;" style="rounded=1;whiteSpace=wrap;html=1;strokeWidth=4;" parent="1" vertex="1">
          <mxGeometry x="600" y="640" width="120" height="40" as="geometry" />
        </mxCell>
        <mxCell id="o7nRxInke629bI4oSXLo-22" value="&lt;font style=&quot;font-size: 14px;&quot;&gt;GPS Chip&lt;/font&gt;" style="rounded=1;whiteSpace=wrap;html=1;strokeWidth=4;" parent="1" vertex="1">
          <mxGeometry x="1120" y="625" width="120" height="40" as="geometry" />
        </mxCell>
        <mxCell id="o7nRxInke629bI4oSXLo-24" value="&lt;font style=&quot;font-size: 14px;&quot;&gt;GPS Chip&lt;/font&gt;" style="rounded=1;whiteSpace=wrap;html=1;strokeWidth=4;" parent="1" vertex="1">
          <mxGeometry x="610" y="330" width="120" height="40" as="geometry" />
        </mxCell>
      </root>
    </mxGraphModel>
  </diagram>
</mxfile>
